<svg xmlns="http://www.w3.org/2000/svg" width="434.363" height="139.64" viewBox="0 0 434.363 139.64"><path d="M13.665 112.856v-13.5h13.909l.295 6.75.296 6.75 16.75.274 16.75.274V87.356h-10v-14h-23v-13h-15v-47h63v23h-15v-12h-33v23.89l4.75.305c4.74.304 4.75.312 4.42 3.67-.18 1.851-.06 4.439.27 5.75.589 2.347.79 2.385 12.531 2.385H62.57l.297 6.18.298 6.179 6.75-.249 6.75-.248v54.138h-63Zm74-43v-56.5h59v113h-59zm45.214 5c.118-21.175.23-41.088.25-44.25l.036-5.75-16.401-.276-16.402-.275.652 9.18c.358 5.048.651 25.084.651 44.525v35.346h31zm25.786-5.036V13.284l9.75.286 9.75.286.245 49.5.245 49.5h21.51l.26-49.75.259-49.75h54.981v100h28v13h-48v-102h-15v102h-62zm136 23.536v-33h31v-12h11v-24h-30v12h-12v-23h53v60h-41v40.075l9.25-.287 9.25-.288.296-6.75.296-6.75h21.908v27h-53zm64 19.5v-13.5h18v14.058l13.25-.279 13.25-.279.271-19.75.271-19.75h-14.042v-12h14.045l-.272-18.25-.273-18.25-13.25-.279-13.25-.28v12.059h-18v-23h62v48h-10v11.626l4.75-.063 4.75-.063.266 26.75.267 26.75h-62.033Zm-88-24v-9.5h13v19h-13zm88-34.5v-6h18v12h-18z"/></svg>