<?xml version="1.0" encoding="UTF-8" standalone="no"?>
<!-- Created with Inkscape (http://www.inkscape.org/) -->

<svg
   version="1.1"
   id="svg1"
   width="500"
   height="143.34241"
   viewBox="0 0 500 143.34241"
   xmlns="http://www.w3.org/2000/svg"
   xmlns:svg="http://www.w3.org/2000/svg">
  <defs
     id="defs1" />
  <g
     id="g1"
     transform="translate(0,-175.95109)">
    <path
       style="fill:#000000"
       d="m 46.483663,293.03617 v -13.5 h 6.95431 6.95431 l 0.29569,6.75 0.29569,6.75 16.75,0.27418 16.750004,0.27418 v -13.02418 -13.02418 h -5.000004 -5 v -7 -7 h -11.5 -11.5 v -6.5 -6.5 h -7.5 -7.5 v -23.5 -23.5 h 31.5 31.500007 v 11.5 11.5 h -7.5 -7.500003 v -6 -6 h -16.500004 -16.5 v 11.94521 11.94521 l 4.75,0.30479 c 4.740618,0.30419 4.749349,0.31144 4.420569,3.67024 -0.181187,1.851 -0.06011,4.4385 0.269052,5.75 0.588828,2.34608 0.790996,2.38455 12.531714,2.38455 h 11.933229 l 0.29772,6.17936 0.29772,6.17936 6.750003,-0.24828 6.75,-0.24827 v 27.06891 27.06892 h -31.500007 -31.5 z m 74.000007,-43 v -56.5 h 29.5 29.5 v 56.5 56.5 h -29.5 -29.5 z m 45.21429,5 c 0.11785,-21.175 0.23035,-41.0875 0.25,-44.25 l 0.0357,-5.75 -16.40155,-0.2755 -16.40156,-0.2755 0.65156,9.17913 c 0.35836,5.04851 0.65156,25.08499 0.65156,44.52549 v 35.34638 h 15.5 15.5 z m 25.78571,-5.03621 v -56.53621 l 9.75,0.28621 9.75,0.28621 0.24489,49.5 0.24489,49.5 h 10.75511 10.75511 l 0.25934,-49.75 0.25933,-49.75 h 27.49067 27.49066 v 50 50 h 14 14 v 6.5 6.5 h -24 -24 v -51 -51 h -7.5 -7.5 v 51 51 h -31 -31 z m 136,23.53621 v -33 h 15.5 15.5 v -6 -6 h 5.5 5.5 v -12 -12 h -15 -15 v 6 6 h -6 -6 v -11.5 -11.5 h 26.5 26.5 v 30 30 h -20.5 -20.5 v 20.03753 20.03752 l 9.25,-0.28752 9.25,-0.28753 0.29569,-6.75 0.29569,-6.75 h 10.95431 10.95431 v 13.5 13.5 h -26.5 -26.5 z m 64,19.5 v -13.5 h 9 9 v 7.02903 7.02902 l 13.25,-0.27902 13.25,-0.27903 0.27114,-19.75 0.27114,-19.75 h -7.02114 -7.02114 v -6 -6 h 7.02256 7.02256 l -0.27256,-18.25 -0.27256,-18.25 -13.25,-0.27903 -13.25,-0.27902 v 6.02902 6.02903 h -9 -9 v -11.5 -11.5 h 31 31 v 24 24 h -5 -5 v 5.81284 5.81284 l 4.75,-0.0628 4.75,-0.0628 0.26633,26.75 0.26634,26.75 H 422.5 391.48367 Z m -88,-24 v -9.5 h 6.5 6.5 v 9.5 9.5 h -6.5 -6.5 z m 88,-34.5 v -6 h 9 9 v 6 6 h -9 -9 z"
       id="path1" />
  </g>
</svg>
